<svg width="24" height="24" viewBox="0 0 24 24" fill="none" xmlns="http://www.w3.org/2000/svg">
<g clip-path="url(#clip0_106_2)">
<path d="M16.1681 20.1385C16.0437 20.0629 15.9354 19.9614 15.8492 19.8385C15.8095 19.7818 15.7759 19.7218 15.748 19.6599H1.61638V5.73096H20.798V14.8261C21.2075 14.863 21.5511 15.132 21.6954 15.5003C21.8231 15.4303 21.9655 15.387 22.1151 15.3738C22.2163 15.365 22.3169 15.3713 22.4144 15.3905V2.26096C22.4144 1.51821 21.8102 0.91394 21.0675 0.91394H1.34696C0.604271 0.91394 0 1.51821 0 2.26096V19.9293C0 20.6721 0.604271 21.2763 1.34696 21.2763H16.0453C15.9306 21.044 15.9034 20.7818 15.9709 20.5296C16.0098 20.3845 16.0772 20.2521 16.1681 20.1385ZM19.3189 3.17585C19.3189 2.90118 19.5416 2.67846 19.8162 2.67846H20.3136C20.5883 2.67846 20.8109 2.90112 20.8109 3.17585V3.73955C20.8109 4.01422 20.5882 4.23689 20.3136 4.23689H19.8162C19.5415 4.23689 19.3189 4.01422 19.3189 3.73955V3.17585ZM17.0062 3.17585C17.0062 2.90118 17.2289 2.67846 17.5036 2.67846H18.001C18.2757 2.67846 18.4983 2.90112 18.4983 3.17585V3.73955C18.4983 4.01422 18.2756 4.23689 18.001 4.23689H17.5036C17.2289 4.23689 17.0062 4.01422 17.0062 3.73955V3.17585ZM14.6935 3.17585C14.6935 2.90118 14.9162 2.67846 15.1908 2.67846H15.6882C15.9629 2.67846 16.1856 2.90112 16.1856 3.17585V3.73955C16.1856 4.01422 15.9629 4.23689 15.6882 4.23689H15.1908C14.9162 4.23689 14.6935 4.01422 14.6935 3.73955V3.17585Z" fill="black"/>
<path d="M23.9968 19.19L23.8474 18.3424C23.8272 18.2283 23.7184 18.1521 23.6042 18.1722L22.8505 18.305C22.76 18.0927 22.6444 17.8938 22.5073 17.7118L22.9996 17.1249C23.0353 17.0824 23.0528 17.0273 23.048 16.9718C23.0431 16.9163 23.0163 16.8651 22.9737 16.8292L22.3145 16.276C22.2718 16.2402 22.2166 16.2228 22.1611 16.2277C22.1057 16.2326 22.0544 16.2592 22.0187 16.3019L21.5268 16.8883C21.3249 16.7854 21.1089 16.7061 20.8826 16.6537V15.8883C20.8826 15.7724 20.7886 15.6783 20.6727 15.6783H19.812C19.6962 15.6783 19.6021 15.7724 19.6021 15.8883V16.6537C19.3757 16.706 19.16 16.7854 18.9579 16.8883L18.466 16.3019C18.3914 16.2131 18.2591 16.2016 18.1702 16.276L17.511 16.8292C17.4683 16.8651 17.4416 16.9163 17.4367 16.9718C17.4319 17.0273 17.4493 17.0825 17.4851 17.1251L17.9774 17.7118C17.8405 17.8938 17.7247 18.0928 17.6342 18.3051L16.8805 18.1722C16.7665 18.1521 16.6576 18.2283 16.6373 18.3424L16.4879 19.19C16.4783 19.2448 16.4908 19.3012 16.5226 19.3468C16.5547 19.3925 16.6032 19.4235 16.6581 19.4332L17.4124 19.5661C17.4247 19.7998 17.4653 20.0259 17.5308 20.2412L16.8679 20.6238C16.8196 20.6516 16.7845 20.6975 16.77 20.7512C16.7556 20.805 16.7632 20.8623 16.791 20.9105L17.2213 21.6558C17.249 21.7041 17.295 21.7392 17.3487 21.7536C17.3666 21.7584 17.3848 21.7608 17.403 21.7608C17.4396 21.7608 17.4757 21.7513 17.508 21.7327L18.1715 21.3496C18.3275 21.5167 18.5036 21.6649 18.6961 21.7902L18.4341 22.5099C18.4152 22.5622 18.4176 22.6199 18.4412 22.6704C18.4647 22.7209 18.5073 22.7599 18.5596 22.7789L19.3682 23.0732C19.3914 23.0816 19.4157 23.086 19.44 23.086C19.4703 23.086 19.5008 23.0794 19.5288 23.0662C19.5793 23.0428 19.6182 23.0001 19.6372 22.9478L19.8992 22.2281C20.0115 22.2417 20.1258 22.2487 20.2417 22.2487C20.3577 22.2487 20.472 22.2415 20.5843 22.2281L20.8463 22.9478C20.8653 23.0001 20.9044 23.0428 20.9547 23.0662C20.9827 23.0793 21.0131 23.086 21.0435 23.086C21.0678 23.086 21.0921 23.0817 21.1153 23.0732L21.924 22.7789C21.9762 22.7599 22.0188 22.7208 22.0423 22.6704C22.0659 22.6199 22.0684 22.5622 22.0494 22.5099L21.7874 21.7903C21.9797 21.665 22.1558 21.5167 22.312 21.3497L22.9755 21.7328C23.0077 21.7513 23.0439 21.7609 23.0804 21.7609C23.0986 21.7609 23.117 21.7584 23.1348 21.7537C23.1886 21.7393 23.2344 21.7041 23.2622 21.656L23.6925 20.9105C23.7203 20.8624 23.7279 20.805 23.7135 20.7512C23.699 20.6976 23.6638 20.6517 23.6156 20.6238L22.9528 20.2413C23.0183 20.026 23.0588 19.7999 23.0711 19.5662L23.8254 19.4332C23.8803 19.4236 23.929 19.3926 23.9609 19.3469C23.994 19.3012 24.0065 19.2448 23.9968 19.19ZM20.2424 20.5369C19.6049 20.5369 19.088 20.0199 19.088 19.3823C19.088 18.7447 19.605 18.2278 20.2424 18.2278C20.88 18.2278 21.397 18.7447 21.397 19.3823C21.397 20.0199 20.88 20.5369 20.2424 20.5369Z" fill="black"/>
<path d="M9.41272 13.4521C9.41272 13.1805 9.25355 12.931 9.00717 12.8166L6.75223 11.7689L9.00723 10.7211C9.25355 10.6065 9.41272 10.3571 9.41272 10.0857V10.0674C9.41272 9.82681 9.29162 9.60592 9.08895 9.47681C8.97682 9.4052 8.84623 9.36731 8.71141 9.36731C8.60979 9.36731 8.50777 9.38966 8.4165 9.43206L4.81145 11.1085C4.56518 11.223 4.40613 11.4725 4.40613 11.7439V11.794C4.40613 12.0651 4.56513 12.3143 4.81151 12.4294L8.4169 14.106C8.51012 14.1492 8.60939 14.1711 8.71192 14.1711C8.84554 14.1711 8.97574 14.1331 9.08895 14.0611C9.29173 13.9315 9.41278 13.7108 9.41278 13.4704L9.41272 13.4521Z" fill="black"/>
<path d="M12.9697 7.65906C12.8382 7.47903 12.6267 7.37158 12.4038 7.37158H12.3859C12.0799 7.37158 11.8116 7.56733 11.7184 7.85829L9.34316 15.2179C9.27555 15.4304 9.31362 15.6644 9.44495 15.8444C9.57646 16.0243 9.78798 16.1318 10.0108 16.1318H10.0288C10.3347 16.1318 10.6028 15.936 10.6959 15.6451L13.0709 8.28608C13.1391 8.07375 13.1013 7.83937 12.9697 7.65906Z" fill="black"/>
<path d="M17.603 11.1084L13.9979 9.43195C13.9069 9.38966 13.805 9.36731 13.7034 9.36731C13.5687 9.36731 13.438 9.40509 13.3259 9.47658C13.1229 9.60592 13.0018 9.82676 13.0018 10.0674V10.0856C13.0018 10.3568 13.1609 10.6063 13.4074 10.7213L15.6623 11.7689L13.4074 12.8166C13.161 12.931 13.0018 13.1805 13.0018 13.452V13.4704C13.0018 13.7107 13.1229 13.9314 13.3258 14.0611C13.4386 14.133 13.569 14.171 13.7027 14.171C13.8052 14.171 13.9043 14.1491 13.9982 14.1058L17.6034 12.4292C17.8496 12.3144 18.0085 12.0651 18.0085 11.794V11.7439C18.0084 11.4724 17.8493 11.223 17.603 11.1084Z" fill="black"/>
</g>
<defs>
<clipPath id="clip0_106_2">
<rect width="24" height="24" fill="white"/>
</clipPath>
</defs>
</svg>
