<svg width="30" height="30" viewBox="0 0 30 30" fill="none" xmlns="http://www.w3.org/2000/svg">
<path d="M24.6328 24.3141C23.9821 23.3402 22.994 22.8011 22.0657 22.4511C21.5999 22.2762 21.1446 22.1468 20.7437 22.037C20.3432 21.9282 19.995 21.8365 19.7612 21.7483C19.3522 21.5964 18.9196 21.3993 18.618 21.1877C18.4675 21.0823 18.3514 20.9744 18.284 20.8818C18.2161 20.7877 18.1975 20.7226 18.1968 20.6657C18.1968 20.2721 18.1968 19.7801 18.1968 19.1326C18.7202 18.5498 19.4723 17.6475 19.7813 16.2163C19.8894 16.1678 19.9962 16.1124 20.0991 16.0409C20.355 15.8644 20.5723 15.6076 20.7564 15.2587C20.9419 14.9082 21.1057 14.4603 21.2809 13.8476C21.3696 13.5369 21.4105 13.2668 21.4105 13.0267C21.4112 12.7498 21.3539 12.5091 21.2492 12.3141C21.1941 12.2096 21.1242 12.1273 21.0512 12.0533C21.0686 12.0278 21.0865 12.0023 21.101 11.9788C21.4048 11.496 21.101 9.22383 21.101 9.22383L21.0777 9.21498V5.22621L24.7239 4.01121L15.0001 0L5.27632 4.01121L5.93257 4.22982V8.79041C5.57357 8.88791 5.30767 9.2124 5.30767 9.60252C5.30767 9.67459 5.31939 9.74373 5.33656 9.81035C5.20911 9.99316 5.13294 10.2137 5.13294 10.4534V11.6684C5.13294 12.2889 5.63626 12.185 6.25724 12.185C6.87822 12.185 7.38183 12.2889 7.38183 11.6684V10.4534C7.38183 10.2137 7.30566 9.99316 7.17822 9.81035C7.19533 9.74373 7.20716 9.67459 7.20716 9.60252C7.20716 9.2124 6.94103 8.88791 6.58226 8.79041V4.44592L8.92285 5.22621V9.00844L8.89882 9.01781C8.89882 9.01781 8.59519 11.29 8.89882 11.7718C8.93656 11.8321 8.98507 11.9007 9.04044 11.9753C8.9324 12.0625 8.82827 12.1689 8.75099 12.3139C8.64634 12.5091 8.58904 12.7497 8.58927 13.0266C8.5898 13.2667 8.6307 13.5368 8.71941 13.8475C8.95367 14.6636 9.16513 15.1904 9.43888 15.5771C9.57616 15.7693 9.73173 15.9232 9.9013 16.0409C10.004 16.1124 10.1108 16.1678 10.2189 16.2163C10.528 17.6474 11.28 18.5498 11.8035 19.1325C11.8035 19.78 11.8035 20.272 11.8035 20.6656C11.8035 20.7137 11.7842 20.7837 11.7092 20.8832C11.5991 21.0318 11.3707 21.2111 11.0999 21.3631C10.8296 21.517 10.5186 21.6503 10.2466 21.7459C9.92732 21.859 9.41269 21.9767 8.83607 22.1423C7.96976 22.3928 6.94566 22.7535 6.1124 23.4681C5.69656 23.8254 5.3314 24.2739 5.07435 24.8317C4.8173 25.3889 4.66999 26.0511 4.67023 26.826C4.67023 27.0059 4.67808 27.1921 4.69396 27.3842C4.70626 27.519 4.75747 27.6283 4.81771 27.7185C4.9322 27.8871 5.08437 28.0121 5.27474 28.1409C5.60849 28.3615 6.07068 28.5777 6.66253 28.7894C8.43359 29.4212 11.3665 29.9995 15 30C17.9523 30 20.4443 29.6167 22.223 29.1354C23.1128 28.8943 23.8232 28.6301 24.3366 28.3665C24.594 28.2336 24.8018 28.1023 24.9667 27.9582C25.0493 27.8856 25.1216 27.8092 25.1826 27.7185C25.2426 27.6284 25.2939 27.519 25.3057 27.3842C25.3218 27.1921 25.3297 27.0069 25.3297 26.8274C25.331 25.7947 25.0658 24.9621 24.6328 24.3141ZM14.0135 23.9343L11.6104 21.9885C11.6785 21.9473 11.7477 21.9071 11.8124 21.8625C12.0151 21.7204 12.2006 21.5616 12.3481 21.3684C12.4373 21.2518 12.5101 21.1145 12.5559 20.9651L14.9151 22.2217L14.0135 23.9343ZM12.6053 20.5779C12.6053 20.1667 12.6053 19.6614 12.6053 18.9791V18.8252L12.5025 18.7105C11.9554 18.1012 11.2149 17.2931 10.958 15.8555L10.9176 15.6257L10.6983 15.5473C10.5586 15.4973 10.452 15.4468 10.3591 15.3821C10.2221 15.2851 10.0979 15.1532 9.95257 14.8826C9.80896 14.613 9.65702 14.2112 9.49062 13.6274C9.41761 13.3726 9.3916 13.1741 9.3916 13.0266C9.39206 12.8555 9.42464 12.7555 9.45822 12.6928C9.48347 12.6462 9.51195 12.6134 9.54376 12.5884C9.86702 12.9604 10.1751 13.2878 10.1751 13.2878L10.613 8.81883C12.2458 8.66689 14.3154 8.95312 15.0001 9.72363C15.6821 8.95611 17.7369 8.66889 19.3666 8.81637L19.8249 13.4937C19.8249 13.4937 20.1897 13.106 20.5424 12.6943C20.5757 12.758 20.6078 12.857 20.6085 13.0266C20.6085 13.1742 20.5821 13.3727 20.5096 13.6275C20.2885 14.4063 20.09 14.8597 19.9082 15.1106C19.817 15.2381 19.7337 15.3175 19.641 15.3821C19.5481 15.4468 19.4415 15.4973 19.3021 15.5473L19.0823 15.6257L19.0421 15.8556C18.7853 17.2931 18.0447 18.1013 17.4977 18.7106L17.3948 18.8252V18.9792C17.3948 19.6614 17.3948 20.1667 17.3948 20.5779L15.0001 21.8542L12.6053 20.5779ZM15.9867 23.9343L15.0851 22.2218L17.4427 20.9656C17.4856 21.1102 17.5534 21.243 17.638 21.3572C17.8328 21.6189 18.0977 21.817 18.3877 21.9899L15.9867 23.9343Z" fill="#252525"/>
</svg>
